# xmcd
#
# Track frame offsets: 
#        150
#        15285
#        33207
#        48700
#        65463
#        80129
#        98265
#        116263
#        130970
#        154067
#        172662
#        190736
#        206943
#        222290
#        235453
#        246098
#        262613
#        282075
#
# Disc length: 3945 seconds
#
# Revision: 2
# Processed by: cddbd v1.5.2PL0 Copyright (c) Steve Scherf et al.
# Submitted via: ExactAudioCopyFreeDBPlugin 1.0
#
DISCID=e90f6712
DTITLE=Various Artist - Acoustic Rainbow 43
DYEAR=2014
DGENRE=Country
TTITLE0=Danny Santos - Red Haired Woman
TTITLE1=Lisa Biales - In My Irish Days
TTITLE2=Wyatt Easterling - Teach Me How To Say Goodbye
TTITLE3=Martina Johnsson - Woods Of Pine
TTITLE4=Kasey Jones - Going Down Hill
TTITLE5=John Latini - Koko (Don´t Know When To Quit)
TTITLE6=Jamie-Sue Seal - Crush
TTITLE7=Wayne Martin - Slip Away
TTITLE8=Emy Phelps - Look Up, Lock Down
TTITLE9=Jay Semko - Let The Love In 
TTITLE10=The Four Legged Faithful - Gretta
TTITLE11=CC Trubiak - Blue
TTITLE12=The Kurt Heny Band - There´s An Oak Tree In An Prchard
TTITLE13=Johnny Campbell and The Bluegrass Drifters - Angel From On High
TTITLE14=Solos Absurdos - Did I Ever Cross Your Mind
TTITLE15=Shane Marie Devine - Garten Mother´s Lulabye
TTITLE16=Mike McGuire - Texas Fireball
TTITLE17=Carl Chesna and Co - Dark Night Of The Soul
EXTD=
EXTT0=
EXTT1=
EXTT2=
EXTT3=
EXTT4=
EXTT5=
EXTT6=
EXTT7=
EXTT8=
EXTT9=
EXTT10=
EXTT11=
EXTT12=
EXTT13=
EXTT14=
EXTT15=
EXTT16=
EXTT17=
PLAYORDER=
